#!OML:ASF Y:\EmotionMaleHayes\Project 1\Capture day 1\Session 1\Male1.ASF
:FULLY-SPECIFIED
:DEGREES
519
root 26.0862 16.3555 -0.132382 685.06 84.5107 686.697
lowerback 4.84571 4.08656 1.45246
upperback 1.46834 5.52389 -1.25303
thorax -0.935558 2.77635 -2.39158
lowerneck -23.3002 -1.195 0.466894
upperneck 21.5041 -2.34434 2.24359
head 10.8121 -0.69806 0.371335
rclavicle -2.4699e-014 1.11319e-014
rhumerus -23.1726 10.4143 -86.6725
rradius 47.4893
rwrist -4.67397
rhand -13.7091 -31.6002
rfingers 7.12502
rthumb 12.4096 -61.2118
lclavicle -2.4699e-014 1.11319e-014
lhumerus -40.3243 12.3425 73.2071
lradius 16.4976
lwrist -35.4348
lhand -8.03496 -24.7179
lfingers 7.12502
lthumb 17.8752 4.48063
rfemur 23.5552 5.57339 23.977
rtibia 23.4418
rfoot -17.0707 -1.32985
rtoes -8.12717
lfemur -22.1897 4.15051 -13.2898
ltibia 21.0118
lfoot -2.06741 8.20266
ltoes 4.81925
520
root 26.2733 16.3752 -0.169163 689.256 85.0353 691.244
lowerback 5.08323 3.98048 0.846929
upperback 1.44404 5.35374 -1.47386
thorax -1.13558 2.69025 -2.29584
lowerneck -22.8407 -1.14975 0.39369
upperneck 21.352 -2.30326 2.48424
head 10.6758 -0.658654 0.478545
rclavicle -2.55935e-014 -6.36111e-015
rhumerus -24.4368 10.3924 -87.1828
rradius 47.0799
rwrist -4.63584
rhand -13.4926 -31.7156
rfingers 7.12502
rthumb 12.6183 -61.3145
lclavicle -2.55935e-014 -6.36111e-015
lhumerus -39.8462 12.306 73.421
lradius 16.5382
lwrist -35.5417
lhand -8.46872 -24.8743
lfingers 7.12502
lthumb 17.4578 4.36174
rfemur 23.0733 5.32861 22.9263
rtibia 25.7321
rfoot -14.922 -0.93029
rtoes -4.9395
lfemur -21.52 3.59766 -14.3343
ltibia 21.6409
lfoot -2.616 7.74674
ltoes 6.37227
521
root 26.4628 16.3955 -0.2035 692.257 85.3574 694.621
lowerback 5.27329 3.93864 0.524807
upperback 1.51171 5.28361 -1.65433
thorax -1.18675 2.65754 -2.31084
lowerneck -22.9322 -1.15101 0.369495
upperneck 21.6 -2.34207 2.6441
head 10.7877 -0.650805 0.535056
rclavicle 2.78299e-014 -6.36111e-015
rhumerus -25.4752 10.1451 -87.6534
rradius 46.3829
rwrist -4.36923
rhand -13.3955 -31.9392
rfingers 7.12502
rthumb 12.7119 -61.5322
lclavicle 2.78299e-014 -6.36111e-015
lhumerus -39.0818 12.6227 73.4546
lradius 16.3201
lwrist -36.193
lhand -8.96801 -25.3885
lfingers 7.12502
lthumb 16.9772 3.88954
rfemur 22.3987 5.1247 22.1592
rtibia 28.2907
rfoot -12.1176 -0.697463
rtoes 1.97986
lfemur -20.5433 3.05362 -15.0496
ltibia 21.8501
lfoot -3.29648 7.89383
ltoes 7.48727
522
root 26.6479 16.4158 -0.236448 697.767 85.6895 700.536
lowerback 5.45746 3.96169 0.0281673
upperback 1.67762 5.29347 -1.82458
thorax -1.14666 2.66712 -2.21827
lowerneck -23.1285 -1.28625 0.371672
upperneck 21.7941 -2.50885 2.52514
head 10.8959 -0.736867 0.46499
rclavicle -1.13804e-014 -5.56597e-015
rhumerus -26.2012 9.98785 -87.9661
rradius 45.3807
rwrist -4.28995
rhand -13.6279 -31.802
rfingers 7.12502
rthumb 12.4879 -61.4088
lclavicle -1.13804e-014 -5.56597e-015
lhumerus -38.0595 12.7604 73.8296
lradius 16.1257
lwrist -36.5877
lhand -9.33217 -25.618
lfingers 7.12502
lthumb 16.6267 3.68985
rfemur 21.6834 5.04321 21.2816
rtibia 30.7733
rfoot -9.47201 -0.861483
rtoes 9.66418
lfemur -19.4048 2.52193 -15.9379
ltibia 21.9265
lfoot -3.91794 8.24778
ltoes 8.64324
523
root 26.8322 16.4359 -0.275503 711.875 86.1297 715.044
lowerback 5.63853 3.9364 -1.03633
upperback 1.79213 5.20661 -2.11199
thorax -1.19986 2.62782 -1.92922
lowerneck -22.9469 -1.38494 0.577822
upperneck 21.7394 -2.59396 2.06136
head 10.8316 -0.821578 0.249827
rclavicle 4.05521e-014 -3.33958e-014
rhumerus -27.146 9.91761 -88.3029
rradius 44.5437
rwrist -4.22552
rhand -13.7577 -31.5507
rfingers 7.12502
rthumb 12.3628 -61.1652
lclavicle 4.05521e-014 -3.33958e-014
lhumerus -37.2333 12.5499 74.4552
lradius 16.2009
lwrist -36.3792
lhand -9.59248 -25.5946
lfingers 7.12502
lthumb 16.376 3.73403
rfemur 21.0414 4.86746 19.6345
rtibia 33.0388
rfoot -6.88978 -1.04103
rtoes 15.7072
lfemur -18.2006 2.00649 -17.6206
ltibia 21.8652
lfoot -4.37646 8.22455
ltoes 8.74887
